<?xml version="1.0" encoding="UTF-8"?>
<svg xmlns="http://www.w3.org/2000/svg" xmlns:xlink="http://www.w3.org/1999/xlink" viewBox="0 0 50 50" width="50px" height="50px">
<g id="surface33647000">
<path style=" stroke:none;fill-rule:nonzero;fill:rgb(0%,0%,0%);fill-opacity:1;" d="M 4.75 19 C 5.4375 19 6.171875 19 6.855469 19 C 6.847656 23.183594 6.839844 27.371094 6.835938 31.554688 C 6.097656 31.632812 5.289062 31.734375 4.558594 31.816406 C 3.621094 29.195312 3.042969 27.566406 2.101562 24.804688 C 2.101562 27.609375 2.097656 29.335938 2.097656 32.140625 C 1.414062 32.226562 0.683594 32.320312 0 32.417969 C 0 27.945312 0 23.472656 0 19 C 0.769531 19 1.25 19 2.019531 19 C 2.929688 21.9375 3.835938 23.785156 4.738281 26.578125 C 4.742188 23.714844 4.746094 21.863281 4.75 19 Z M 14.730469 21.074219 C 14.730469 20.46875 14.71875 19.601562 14.71875 19 C 12.765625 19 10.839844 19 8.886719 19 C 8.878906 23.125 8.871094 27.253906 8.863281 31.378906 C 10.8125 31.203125 12.765625 31.058594 14.71875 30.945312 C 14.722656 30.339844 14.722656 29.472656 14.722656 28.871094 C 13.453125 28.949219 12.238281 29.027344 10.96875 29.113281 C 10.972656 28.007812 10.972656 27.089844 10.976562 25.980469 C 11.902344 25.964844 12.878906 25.976562 13.824219 25.960938 C 13.824219 25.355469 13.828125 24.484375 13.828125 23.878906 C 12.890625 23.894531 11.902344 23.898438 10.980469 23.914062 C 10.980469 22.804688 10.984375 22.195312 10.988281 21.085938 C 11.566406 21.078125 14.246094 21.078125 14.730469 21.074219 Z M 16.082031 21.070312 C 16.175781 21.070312 18.199219 21.082031 18.269531 21.082031 C 18.265625 24.410156 18.261719 27.445312 18.257812 30.773438 C 18.945312 30.746094 19.679688 30.726562 20.367188 30.710938 C 20.367188 27.402344 20.371094 24.382812 20.375 21.074219 C 21.101562 21.070312 21.851562 21.066406 22.574219 21.066406 C 22.574219 20.476562 22.578125 19.601562 22.578125 19.011719 C 20.4375 19.011719 18.222656 19.011719 16.085938 19.011719 C 16.085938 19.609375 16.082031 20.472656 16.082031 21.070312 Z M 29.800781 19 C 27.847656 19 25.894531 19 23.945312 19 C 23.941406 22.882812 23.941406 26.769531 23.941406 30.652344 C 24.167969 30.652344 24.398438 30.652344 24.628906 30.652344 C 25.09375 30.652344 25.566406 30.652344 26.027344 30.65625 C 26.027344 29.007812 26.027344 27.503906 26.027344 25.855469 C 26.140625 25.855469 28.601562 25.851562 28.878906 25.855469 C 28.878906 25.265625 28.878906 24.386719 28.875 23.796875 C 28.613281 23.792969 26.132812 23.796875 26.027344 23.796875 C 26.027344 22.734375 26.023438 22.136719 26.023438 21.078125 C 26.253906 21.078125 29.230469 21.078125 29.800781 21.082031 C 29.800781 20.488281 29.800781 19.59375 29.800781 19 Z M 33.261719 28.773438 C 33.257812 25.414062 33.277344 22.367188 33.269531 19.007812 C 32.585938 19.007812 31.851562 19.007812 31.164062 19.007812 C 31.171875 22.929688 31.152344 26.851562 31.15625 30.773438 C 33.027344 30.84375 34.996094 30.917969 36.867188 31.050781 C 36.863281 30.445312 36.863281 29.578125 36.863281 28.976562 C 35.679688 28.90625 34.445312 28.820312 33.261719 28.773438 Z M 38.617188 31.175781 C 39.304688 31.230469 40.011719 31.285156 40.699219 31.347656 C 40.699219 27.238281 40.707031 23.121094 40.699219 19.011719 C 40.011719 19.011719 39.277344 19.011719 38.59375 19.011719 C 38.601562 23.066406 38.609375 27.121094 38.617188 31.175781 Z M 47.246094 25.328125 C 48.136719 23.222656 49.042969 21.214844 49.96875 19.011719 C 49.210938 19.011719 48.429688 19.011719 47.667969 19.011719 C 47.097656 20.371094 46.707031 21.246094 46.160156 22.542969 C 45.652344 21.195312 45.3125 20.320312 44.800781 19.011719 C 44.042969 19.011719 43.261719 19.011719 42.503906 19.011719 C 43.34375 21.0625 44.113281 23.117188 44.96875 25.296875 C 44.082031 27.386719 43.175781 29.464844 42.289062 31.472656 C 43.023438 31.542969 43.785156 31.648438 44.519531 31.730469 C 45.046875 30.441406 45.523438 29.445312 46.054688 28.117188 C 46.578125 29.53125 47.058594 30.625 47.585938 32.082031 C 48.316406 32.179688 49.269531 32.316406 50 32.417969 C 49.113281 30.046875 48.140625 27.574219 47.246094 25.328125 Z M 47.246094 25.328125 "/>
</g>
</svg>
